PathFileType	4	(X/Y/Z)	C:/Users/beibeiliu/ov580/test_trc/User1\sequence.22_training_dense_left.trc
DataRate	CameraRate	NumFrames	NumMarkers	Units	OrigDataRate	OrigDataStartFrame	OrigNumFrames
120	120	10	19	mm	120	35	273
Frame#	Time	ThumbCMC			ThumbMCP			ThumbIP			ThumbTip			IndexMCP			IndexPIP			IndexTip			MiddleMCP			MiddlePIP			MiddleTip			RingMCP			RingPIP			RingTip			PinkyMCP			PinkyPIP			PinkyTip			BackHand1			BackHand2			BackHand3	
		X0	Y0	Z0	X1	Y1	Z1	X2	Y2	Z2	X3	Y3	Z3	X4	Y4	Z4	X5	Y5	Z5	X6	Y6	Z6	X7	Y7	Z7	X8	Y8	Z8	X9	Y9	Z9	X10	Y10	Z10	X11	Y11	Z11	X12	Y12	Z12	X13	Y13	Z13	X14	Y14	Z14	X15	Y15	Z15	X16	Y16	Z16	X17	Y17	Z17	X18	Y18	Z18	
34	0.283333	-209.85	62.8299	47.1861	-184.613	70.6239	19.0295	-177.431	70.5083	-7.48359	-168.291	69.3233	-30.5893	-225.322	52.4271	-32.1326	-196.523	49.3334	-54.0875	-169.303	47.2191	-52.8776	-211.934	29.2835	-37.5453	-178	32.3034	-29.5891	-184.357	36.93	9.42504	-200.291	6.95499	-25.3859	-172.082	20.8052	-9.46062	-187.425	21.7471	22.1531	-197.551	-12.7906	-9.59207	-175.036	5.90843	4.71431	-193.037	14.8808	30.0974	-241.202	3.75208	23.6374	-238.6	2.06058	62.213	-244.248	33.4378	41.0837	
35	0.291667	-203.261	67.6347	49.9334	-181.885	71.1392	17.0907	-174.763	70.9154	-6.80911	-164.623	69.8224	-30.2707	-223.822	64.4435	-32.2728	-196.492	61.8507	-54.1418	-170.044	53.1813	-53.8129	-213.777	34.2033	-37.4519	-180.349	37.8879	-29.6663	-184.032	41.0258	8.78004	-204.842	13.2388	-26.2543	-174.909	21.4211	-9.22723	-188.21	25.2892	19.6473	-200.374	-5.28675	-14.3176	-179.862	8.07408	3.84549	-193.792	14.9992	29.3248	-246.404	11.359	21.4776	-243.679	8.53521	59.8834	-241.431	43.2062	43.9488	
36	0.3	-199.753	69.9091	50.9439	-179.277	70.4305	18.626	-171.556	71.753	-5.57904	-158.527	75.5773	-29.8871	-222.131	68.68	-30.484	-201.744	63.9827	-51.5376	-171.276	52.6693	-54.248	-218.048	43.8679	-35.0982	-183.461	41.8035	-32.8457	-185.647	38.2121	7.21679	-211.631	19.7893	-25.8679	-180.687	21.9593	-13.8732	-194.065	28.7807	20.9953	-207.807	2.27647	-15.0486	-186.839	10.5536	0.36554	-200.137	17.3917	29.5946	-248.626	17.7048	24.5087	-246.905	16.4279	58.9069	-240.788	50.2755	44.9985	
37	0.308333	-198.227	69.6124	50.5031	-177.164	71.3357	18.9648	-168.496	72.8173	-3.39158	-156.078	76.2861	-27.1979	-219.049	76.3189	-31.4895	-198.437	70.5192	-51.6432	-169.751	59.3322	-54.3061	-220.695	49.4128	-32.5356	-185.918	42.4269	-31.1054	-188.639	40.0825	7.24822	-215.455	24.8623	-26.1544	-183.109	26.8029	-10.5066	-198.567	27.6975	22.126	-219.54	5.02792	-15.9674	-191.034	9.32657	-2.33692	-200.411	23.5013	24.6355	-250.195	30.2686	27.3362	-250.168	19.568	60.0999	-239.807	60.8367	46.0059	
38	0.316667	-196.935	69.5645	52.6277	-171.216	72.3317	22.9086	-164.079	75.9912	-3.63962	-156.439	73.4224	-24.4634	-218.432	86.4717	-24.5292	-196.23	81.1793	-49.4802	-171.819	61.6591	-55.4704	-218.9	63.0096	-31.1826	-186.555	47.4294	-29.5085	-191.943	44.6779	10.9927	-216.049	36.7241	-26.8446	-186.904	29.1186	-12.2607	-198.854	32.2105	19.6337	-221.58	15.3225	-17.5855	-195.992	12.853	-3.97851	-207.835	24.4268	28.6375	-252.52	36.0932	25.8596	-250.167	31.4509	59.9404	-238.349	67.5242	49.3445	
39	0.325	-194.845	69.7769	53.8443	-172.912	69.2703	25.3186	-163.126	76.2834	-4.85978	-154.559	76.9448	-29.9482	-212.958	93.1574	-26.4694	-197.384	87.1595	-46.835	-169.901	66.9931	-55.4431	-217.374	66.0841	-33.2316	-186.937	50.6038	-27.2773	-191.488	45.9767	8.26683	-218.147	45.2107	-26.2368	-190.671	31.8321	-11.1827	-204.525	34.2013	21.2817	-224.01	21.9375	-19.5526	-200.634	18.1671	-3.28954	-212.977	28.3408	26.1996	-254.084	49.0413	26.5781	-252.463	35.3474	58.6934	-234.166	72.1119	52.6382	
40	0.333333	-188.134	73.793	54.3445	-170.517	72.0014	23.3269	-161.19	78.5681	-2.91459	-151.379	79.725	-26.2705	-210.516	100.558	-24.046	-192.451	93.23	-45.2505	-172.736	71.1361	-54.865	-216.221	75.1317	-30.6941	-188.117	56.3543	-28.7188	-190.374	54.385	10.7603	-220.085	50.2466	-26.585	-192.634	36.1576	-12.9329	-205.765	41.666	21.116	-229.706	33.3563	-19.395	-204.976	21.8582	-5.28685	-211.765	34.4443	25.662	-256.405	55.6557	23.1877	-253.605	42.9127	59.3854	-234.803	76.047	53.1038	
41	0.341667	-186.942	74.5764	56.607	-169.792	69.6244	26.5932	-158.647	79.7195	-4.11036	-153.277	81.3288	-25.9149	-206.251	108.495	-17.2054	-192.256	100.978	-41.9016	-173.405	77.0883	-53.2566	-214.28	83.0479	-29.8869	-187.116	62.1289	-27.9114	-194.653	54.5587	10.6708	-221.689	57.9299	-26.289	-193.963	43.0917	-12.891	-204.698	46.5167	19.8958	-231.559	37.8456	-21.0897	-207.489	28.4496	-4.98948	-216.38	36.7958	27.9796	-254.223	64.9724	26.0657	-251.931	50.9696	59.8545	-230.08	81.188	56.5189	
42	0.35	-186.985	73.738	54.6381	-164.851	72.0384	26.5051	-161.819	79.1711	-3.58363	-153.08	80.4341	-23.3131	-199.592	116.634	-12.6503	-184.546	105.128	-40.6562	-165.502	80.7599	-52.1553	-209.98	91.0795	-27.9523	-187.537	66.2655	-27.0259	-192.001	62.8859	13.9343	-220.527	66.387	-24.236	-197.569	43.8472	-11.1703	-205.943	49.5792	20.5533	-232.922	47.502	-20.6987	-209.17	35.82	-5.76154	-215.046	44.2097	25.5961	-252.48	72.8386	29.6782	-252.926	55.3372	60.5385	-227.943	84.4303	57.8503	
43	0.358333	-183.876	73.7929	57.5307	-167.249	72.0599	25.8994	-157.707	78.3297	1.46074	-149.128	82.5978	-25.153	-196.273	118.594	-12.578	-180.077	113.55	-35.6976	-166.155	88.8076	-50.6343	-210.001	98.3781	-23.2935	-182.863	72.7828	-25.0838	-191.209	64.696	10.9446	-215.53	73.8323	-24.1647	-196.473	51.2533	-14.0201	-207.809	51.4082	20.5492	-229.703	58.7953	-20.7974	-210.374	42.2712	-7.68081	-213.536	48.4276	23.3087	-249.231	83.1745	29.1357	-255.444	60.6645	59.898	-223.519	88.8263	60.6175	
